<?xml version="1.0" encoding="UTF-8" standalone="no"?>
<!-- Created with Inkscape (http://www.inkscape.org/) -->

<svg
   width="12cm"
   height="8cm"
   viewBox="0 0 120 79.999998"
   version="1.1"
   id="svg8"
   inkscape:version="0.92.5 (2060ec1f9f, 2020-04-08)"
   sodipodi:docname="workflow.svg"
   xmlns:inkscape="http://www.inkscape.org/namespaces/inkscape"
   xmlns:sodipodi="http://sodipodi.sourceforge.net/DTD/sodipodi-0.dtd"
   xmlns="http://www.w3.org/2000/svg"
   xmlns:svg="http://www.w3.org/2000/svg"
   xmlns:rdf="http://www.w3.org/1999/02/22-rdf-syntax-ns#"
   xmlns:cc="http://creativecommons.org/ns#"
   xmlns:dc="http://purl.org/dc/elements/1.1/">
  <defs
     id="defs2">
    <inkscape:perspective
       sodipodi:type="inkscape:persp3d"
       inkscape:vp_x="0 : 39.999999 : 1"
       inkscape:vp_y="110.59294 : 1025.386 : 1"
       inkscape:vp_z="120 : 39.999999 : 1"
       inkscape:persp3d-origin="60 : 26.666666 : 1"
       id="perspective74374" />
  </defs>
  <sodipodi:namedview
     id="base"
     pagecolor="#ffffff"
     bordercolor="#666666"
     borderopacity="1.0"
     inkscape:pageopacity="0.0"
     inkscape:pageshadow="2"
     inkscape:zoom="1.4"
     inkscape:cx="240.53252"
     inkscape:cy="192.474"
     inkscape:document-units="mm"
     inkscape:current-layer="layer1"
     showgrid="false"
     units="cm"
     inkscape:window-width="1920"
     inkscape:window-height="1084"
     inkscape:window-x="1920"
     inkscape:window-y="181"
     inkscape:window-maximized="1"
     inkscape:showpageshadow="2"
     inkscape:pagecheckerboard="0"
     inkscape:deskcolor="#d1d1d1"
     showguides="false" />
  <metadata
     id="metadata5">
    <rdf:RDF>
      <cc:Work
         rdf:about="">
        <dc:format>image/svg+xml</dc:format>
        <dc:type
           rdf:resource="http://purl.org/dc/dcmitype/StillImage" />
        <dc:title />
      </cc:Work>
    </rdf:RDF>
  </metadata>
  <g
     inkscape:label="Layer 1"
     inkscape:groupmode="layer"
     id="layer1"
     transform="translate(0,-217.00003)">
    <path
       id="rect70519"
       style="opacity:0.245232;fill:#fcecec;stroke:#000000;stroke-width:0.264999;stroke-linecap:round;stroke-linejoin:bevel;stroke-dasharray:0.264999, 1.59;fill-opacity:1"
       d="m 57.980648,300.94892 -63.343462,1e-5 v -86.57442 0 h 63.343462" />
    <path
       id="path71003"
       style="opacity:0.245232;fill:#ecf0fc;stroke:#000000;stroke-width:0.264999;stroke-linecap:round;stroke-linejoin:bevel;stroke-dasharray:0.264999, 1.59;fill-opacity:1"
       d="m 57.980648,214.37451 h 62.496482 v 86.57442 l -62.496482,-1e-5" />
    <rect
       style="opacity:1;fill:#ffdead;fill-opacity:1;stroke:#000000;stroke-width:0.264999;stroke-linecap:round;stroke-linejoin:bevel;stroke-dasharray:none"
       id="rect73205"
       width="52.884621"
       height="5.461966"
       x="2.8759532"
       y="289.75146" />
    <rect
       style="opacity:1;fill:#ffcead;fill-opacity:1;stroke:#000000;stroke-width:0.264999;stroke-linecap:round;stroke-linejoin:bevel;stroke-dasharray:none"
       id="rect73211"
       width="27.947319"
       height="4.657886"
       x="2.8973885"
       y="284.61182" />
    <rect
       style="opacity:1;fill:#ffcead;fill-opacity:1;stroke:#000000;stroke-width:0.264999;stroke-linecap:round;stroke-linejoin:bevel;stroke-dasharray:none"
       id="rect73211-1"
       width="27.947319"
       height="4.657886"
       x="2.8453641"
       y="279.29764" />
    <path
       id="path74191"
       style="opacity:1;fill:none;fill-opacity:1;stroke:#000000;stroke-width:0.264999;stroke-linecap:round;stroke-linejoin:bevel;stroke-dasharray:none"
       d="m 11.092567,252.84827 a 4.2447228,4.550808 0 0 0 -4.2447014,4.55062 4.2447228,4.550808 0 0 0 0.9069214,2.80965 2.5050497,2.9600677 0 0 0 -0.6774781,2.02107 2.5050497,2.9600677 0 0 0 0.8412923,2.21123 4.7024198,4.7024198 0 0 0 -1.2789917,3.22203 4.7024198,4.7024198 0 0 0 4.7020385,4.70255 4.7024198,4.7024198 0 0 0 2.152839,-0.52503 3.4003437,2.5507798 0 0 0 3.244247,1.7911 3.4003437,2.5507798 0 0 0 2.263944,-0.64905 4.6053762,4.6053762 0 0 0 3.2613,1.35805 4.6053762,4.6053762 0 0 0 4.605404,-4.6054 4.6053762,4.6053762 0 0 0 -1.535824,-3.43286 3.8084145,3.8793542 0 0 0 1.981275,-3.40135 3.8084145,3.8793542 0 0 0 -1.256771,-2.87992 4.7041354,4.7041354 0 0 0 0.358634,-1.79628 4.7041354,4.7041354 0 0 0 -4.704105,-4.7041 4.7041354,4.7041354 0 0 0 -2.935222,1.02836 2.734998,2.5210199 0 0 0 -2.2934,-1.14722 2.734998,2.5210199 0 0 0 -2.18798,1.01131 4.2447228,4.550808 0 0 0 -3.203422,-1.56476 z" />
    <path
       id="path74191-0"
       style="fill:none;fill-opacity:1;stroke:#000000;stroke-width:0.213543;stroke-linecap:round;stroke-linejoin:bevel;stroke-dasharray:none"
       d="m 40.990805,255.13962 a 3.4205022,3.6671532 15 0 0 -4.253026,2.65676 3.4205022,3.6671532 15 0 0 0.11993,2.37609 2.0186308,2.3852955 15 0 0 -0.948846,1.43184 2.0186308,2.3852955 15 0 0 0.193655,1.89662 3.7893258,3.7893258 0 0 0 -1.667523,2.24116 3.7893258,3.7893258 0 0 0 2.679137,4.64098 3.7893258,3.7893258 0 0 0 1.785198,0.0403 2.7400808,2.0554812 15 0 0 2.151657,2.07076 2.7400808,2.0554812 15 0 0 1.897549,-0.033 3.7111256,3.7111256 0 0 0 2.255249,1.73724 3.7111256,3.7111256 0 0 0 4.545209,-2.62417 3.7111256,3.7111256 0 0 0 -0.479467,-2.99234 3.0689143,3.1260792 15 0 0 2.251552,-2.23428 3.0689143,3.1260792 15 0 0 -0.377584,-2.50375 3.7907082,3.7907082 0 0 0 0.653786,-1.32337 3.7907082,3.7907082 0 0 0 -2.68042,-4.64262 3.7907082,3.7907082 0 0 0 -2.499157,0.18827 2.2039288,2.0315 15 0 0 -1.545841,-1.37128 2.2039288,2.0315 15 0 0 -1.913971,0.33084 3.4205022,3.6671532 15 0 0 -2.167087,-1.88607 z" />
    <g
       sodipodi:type="inkscape:box3d"
       id="g74404"
       style="opacity:1;fill:none;fill-opacity:1;stroke:#000000;stroke-width:1.00157;stroke-linecap:round;stroke-linejoin:bevel;stroke-dasharray:none"
       inkscape:perspectiveID="#perspective74374"
       inkscape:corner0="4.9006822 : 0.10842935 : 0 : 1"
       inkscape:corner7="4.0943689 : 0.088018181 : 0.21807997 : 1">
      <path
         sodipodi:type="inkscape:box3dside"
         id="path74416"
         style="fill:#e9e9ff;fill-rule:evenodd;stroke:none;stroke-linejoin:round"
         inkscape:box3dsidetype="11"
         d="m 15.763305,241.9834 2.344668,-2.23361 -0.349549,3.65909 -2.306969,1.7656 z"
         points="18.107973,239.74979 17.758424,243.40888 15.451455,245.17448 15.763305,241.9834 " />
      <path
         sodipodi:type="inkscape:box3dside"
         id="path74406"
         style="fill:#353564;fill-rule:evenodd;stroke:none;stroke-linejoin:round"
         inkscape:box3dsidetype="6"
         d="m 11.980393,241.43842 -0.336099,3.30543 3.807161,0.43063 0.31185,-3.19108 z"
         points="11.644294,244.74385 15.451455,245.17448 15.763305,241.9834 11.980393,241.43842 " />
      <path
         sodipodi:type="inkscape:box3dside"
         id="path74408"
         style="fill:#4d4d9f;fill-rule:evenodd;stroke:none;stroke-linejoin:round"
         inkscape:box3dsidetype="5"
         d="m 11.980393,241.43842 1.856684,-2.41169 4.270896,0.72306 -2.344668,2.23361 z"
         points="13.837077,239.02673 18.107973,239.74979 15.763305,241.9834 11.980393,241.43842 " />
      <path
         sodipodi:type="inkscape:box3dside"
         id="path74414"
         style="fill:#afafde;fill-rule:evenodd;stroke:none;stroke-linejoin:round"
         inkscape:box3dsidetype="13"
         d="m 11.644294,244.74385 1.811704,-1.9069 4.302426,0.57193 -2.306969,1.7656 z"
         points="13.455998,242.83695 17.758424,243.40888 15.451455,245.17448 11.644294,244.74385 " />
      <path
         sodipodi:type="inkscape:box3dside"
         id="path74412"
         style="fill:#d7d7ff;fill-rule:evenodd;stroke:none;stroke-linejoin:round"
         inkscape:box3dsidetype="14"
         d="m 13.837077,239.02673 -0.381079,3.81022 4.302426,0.57193 0.349549,-3.65909 z"
         points="13.455998,242.83695 17.758424,243.40888 18.107973,239.74979 13.837077,239.02673 " />
      <path
         sodipodi:type="inkscape:box3dside"
         id="path74410"
         style="fill:#8686bf;fill-rule:evenodd;stroke:none;stroke-linejoin:round"
         inkscape:box3dsidetype="3"
         d="m 11.980393,241.43842 1.856684,-2.41169 -0.381079,3.81022 -1.811704,1.9069 z"
         points="13.837077,239.02673 13.455998,242.83695 11.644294,244.74385 11.980393,241.43842 " />
    </g>
  </g>
</svg>
